<mxfile host="app.diagrams.net" modified="2024-01-29T06:21:37.451Z" agent="Mozilla/5.0 (Macintosh; Intel Mac OS X 10_15_7) AppleWebKit/537.36 (KHTML, like Gecko) Chrome/120.0.0.0 Safari/537.36" etag="-a2E5IX7ajk0qHjXvXhe" version="23.0.2" type="github">
  <diagram name="Page-1" id="fi1syyx7cJSy749pCF39">
    <mxGraphModel dx="1647" dy="833" grid="1" gridSize="10" guides="1" tooltips="1" connect="1" arrows="1" fold="1" page="1" pageScale="1" pageWidth="1100" pageHeight="850" math="0" shadow="0">
      <root>
        <mxCell id="0" />
        <mxCell id="1" parent="0" />
        <mxCell id="upYrCxS1yj0FpDNij_Wu-3" value="" style="edgeStyle=orthogonalEdgeStyle;rounded=0;orthogonalLoop=1;jettySize=auto;html=1;" edge="1" parent="1" source="upYrCxS1yj0FpDNij_Wu-1" target="upYrCxS1yj0FpDNij_Wu-2">
          <mxGeometry relative="1" as="geometry" />
        </mxCell>
        <mxCell id="upYrCxS1yj0FpDNij_Wu-1" value="user/pengunjugn perpus" style="rounded=1;whiteSpace=wrap;html=1;" vertex="1" parent="1">
          <mxGeometry x="110" y="300" width="120" height="60" as="geometry" />
        </mxCell>
        <mxCell id="upYrCxS1yj0FpDNij_Wu-7" value="" style="edgeStyle=orthogonalEdgeStyle;rounded=0;orthogonalLoop=1;jettySize=auto;html=1;" edge="1" parent="1" source="upYrCxS1yj0FpDNij_Wu-2" target="upYrCxS1yj0FpDNij_Wu-6">
          <mxGeometry relative="1" as="geometry" />
        </mxCell>
        <mxCell id="upYrCxS1yj0FpDNij_Wu-14" value="" style="edgeStyle=orthogonalEdgeStyle;rounded=0;orthogonalLoop=1;jettySize=auto;html=1;" edge="1" parent="1" source="upYrCxS1yj0FpDNij_Wu-2" target="upYrCxS1yj0FpDNij_Wu-13">
          <mxGeometry relative="1" as="geometry" />
        </mxCell>
        <mxCell id="upYrCxS1yj0FpDNij_Wu-2" value="masuk ke perpus" style="whiteSpace=wrap;html=1;rounded=1;" vertex="1" parent="1">
          <mxGeometry x="310" y="300" width="120" height="60" as="geometry" />
        </mxCell>
        <mxCell id="upYrCxS1yj0FpDNij_Wu-9" value="" style="edgeStyle=orthogonalEdgeStyle;rounded=0;orthogonalLoop=1;jettySize=auto;html=1;" edge="1" parent="1" source="upYrCxS1yj0FpDNij_Wu-6" target="upYrCxS1yj0FpDNij_Wu-8">
          <mxGeometry relative="1" as="geometry" />
        </mxCell>
        <mxCell id="upYrCxS1yj0FpDNij_Wu-6" value="Isi form kunjungan" style="whiteSpace=wrap;html=1;rounded=1;" vertex="1" parent="1">
          <mxGeometry x="310" y="160" width="120" height="60" as="geometry" />
        </mxCell>
        <mxCell id="upYrCxS1yj0FpDNij_Wu-11" value="" style="edgeStyle=orthogonalEdgeStyle;rounded=0;orthogonalLoop=1;jettySize=auto;html=1;" edge="1" parent="1" source="upYrCxS1yj0FpDNij_Wu-8" target="upYrCxS1yj0FpDNij_Wu-10">
          <mxGeometry relative="1" as="geometry" />
        </mxCell>
        <mxCell id="upYrCxS1yj0FpDNij_Wu-8" value="Kirim" style="whiteSpace=wrap;html=1;rounded=1;" vertex="1" parent="1">
          <mxGeometry x="510" y="160" width="120" height="60" as="geometry" />
        </mxCell>
        <mxCell id="upYrCxS1yj0FpDNij_Wu-10" value="daftar kunjungan" style="whiteSpace=wrap;html=1;rounded=1;" vertex="1" parent="1">
          <mxGeometry x="710" y="160" width="120" height="60" as="geometry" />
        </mxCell>
        <mxCell id="upYrCxS1yj0FpDNij_Wu-12" value="" style="edgeStyle=orthogonalEdgeStyle;rounded=0;orthogonalLoop=1;jettySize=auto;html=1;exitX=0.5;exitY=0;exitDx=0;exitDy=0;entryX=0.5;entryY=0;entryDx=0;entryDy=0;" edge="1" parent="1" source="upYrCxS1yj0FpDNij_Wu-10" target="upYrCxS1yj0FpDNij_Wu-6">
          <mxGeometry relative="1" as="geometry">
            <mxPoint x="640" y="200" as="sourcePoint" />
            <mxPoint x="720" y="200" as="targetPoint" />
          </mxGeometry>
        </mxCell>
        <mxCell id="upYrCxS1yj0FpDNij_Wu-16" value="" style="edgeStyle=orthogonalEdgeStyle;rounded=0;orthogonalLoop=1;jettySize=auto;html=1;" edge="1" parent="1" source="upYrCxS1yj0FpDNij_Wu-13" target="upYrCxS1yj0FpDNij_Wu-15">
          <mxGeometry relative="1" as="geometry" />
        </mxCell>
        <mxCell id="upYrCxS1yj0FpDNij_Wu-25" value="" style="edgeStyle=orthogonalEdgeStyle;rounded=0;orthogonalLoop=1;jettySize=auto;html=1;" edge="1" parent="1" source="upYrCxS1yj0FpDNij_Wu-13" target="upYrCxS1yj0FpDNij_Wu-15">
          <mxGeometry relative="1" as="geometry" />
        </mxCell>
        <mxCell id="upYrCxS1yj0FpDNij_Wu-13" value="Daftar buku" style="whiteSpace=wrap;html=1;rounded=1;" vertex="1" parent="1">
          <mxGeometry x="310" y="440" width="120" height="60" as="geometry" />
        </mxCell>
        <mxCell id="upYrCxS1yj0FpDNij_Wu-18" value="" style="edgeStyle=orthogonalEdgeStyle;rounded=0;orthogonalLoop=1;jettySize=auto;html=1;" edge="1" parent="1" source="upYrCxS1yj0FpDNij_Wu-15" target="upYrCxS1yj0FpDNij_Wu-17">
          <mxGeometry relative="1" as="geometry" />
        </mxCell>
        <mxCell id="upYrCxS1yj0FpDNij_Wu-15" value="Pencarian" style="whiteSpace=wrap;html=1;rounded=1;" vertex="1" parent="1">
          <mxGeometry x="510" y="440" width="120" height="60" as="geometry" />
        </mxCell>
        <mxCell id="upYrCxS1yj0FpDNij_Wu-20" value="" style="edgeStyle=orthogonalEdgeStyle;rounded=0;orthogonalLoop=1;jettySize=auto;html=1;" edge="1" parent="1" source="upYrCxS1yj0FpDNij_Wu-17" target="upYrCxS1yj0FpDNij_Wu-19">
          <mxGeometry relative="1" as="geometry" />
        </mxCell>
        <mxCell id="upYrCxS1yj0FpDNij_Wu-17" value="memasukkan kata kunci" style="whiteSpace=wrap;html=1;rounded=1;" vertex="1" parent="1">
          <mxGeometry x="710" y="440" width="120" height="60" as="geometry" />
        </mxCell>
        <mxCell id="upYrCxS1yj0FpDNij_Wu-22" value="" style="edgeStyle=orthogonalEdgeStyle;rounded=0;orthogonalLoop=1;jettySize=auto;html=1;" edge="1" parent="1" source="upYrCxS1yj0FpDNij_Wu-19" target="upYrCxS1yj0FpDNij_Wu-21">
          <mxGeometry relative="1" as="geometry" />
        </mxCell>
        <mxCell id="upYrCxS1yj0FpDNij_Wu-19" value="Hasil pencarian" style="whiteSpace=wrap;html=1;rounded=1;" vertex="1" parent="1">
          <mxGeometry x="910" y="440" width="120" height="60" as="geometry" />
        </mxCell>
        <mxCell id="upYrCxS1yj0FpDNij_Wu-21" value="Detail buku" style="whiteSpace=wrap;html=1;rounded=1;" vertex="1" parent="1">
          <mxGeometry x="910" y="580" width="120" height="60" as="geometry" />
        </mxCell>
        <mxCell id="upYrCxS1yj0FpDNij_Wu-24" value="" style="edgeStyle=orthogonalEdgeStyle;rounded=0;orthogonalLoop=1;jettySize=auto;html=1;entryX=0;entryY=0.5;entryDx=0;entryDy=0;exitX=0.43;exitY=1.041;exitDx=0;exitDy=0;exitPerimeter=0;" edge="1" parent="1" source="upYrCxS1yj0FpDNij_Wu-13" target="upYrCxS1yj0FpDNij_Wu-21">
          <mxGeometry relative="1" as="geometry">
            <mxPoint x="520" y="480" as="sourcePoint" />
            <mxPoint x="860" y="640" as="targetPoint" />
            <Array as="points">
              <mxPoint x="362" y="610" />
            </Array>
          </mxGeometry>
        </mxCell>
      </root>
    </mxGraphModel>
  </diagram>
</mxfile>
